# xmcd
#
# Track frame offsets:
#	150
#	20295
#	45949
#	66262
#	83587
#	111368
#	137100
#	158742
#	179500
#	201108
#	217315
#
# Disc length: 3193 seconds
#
# Revision: 1
# Processed by: cddbd v1.4PL0 Copyright (c) Steve Scherf et al.
# Submitted via: CDmax 1.8
#
DISCID=980c770b
DTITLE=The Matthew Skoller Band - Shoulder To The Wind
DYEAR=2002
DGENRE=Blues
TTITLE0=You Don't Even Know
TTITLE1=Live Your Life Like That
TTITLE2=Chicago Wind
TTITLE3=Grew Up On Vinyl
TTITLE4=Delta Combat Zone
TTITLE5=One Last Flower
TTITLE6=Love Me Or Leave Me
TTITLE7=Broke And Hungry
TTITLE8=Hard Hearted Woman
TTITLE9=Mean Streak
TTITLE10=High Maintenance Mamma
EXTD=
EXTT0=
EXTT1=
EXTT2=
EXTT3=
EXTT4=
EXTT5=
EXTT6=
EXTT7=
EXTT8=
EXTT9=
EXTT10=
PLAYORDER=
